<?xml version="1.0" encoding="utf-8"?>
<!-- Generator: Adobe Illustrator 27.6.1, SVG Export Plug-In . SVG Version: 6.00 Build 0)  -->
<svg version="1.1" id="Layer_1" xmlns="http://www.w3.org/2000/svg" xmlns:xlink="http://www.w3.org/1999/xlink" x="0px" y="0px"
	 viewBox="0 0 313.9 162.8" style="enable-background:new 0 0 313.9 162.8;" xml:space="preserve">
<style type="text/css">
	.st0{fill:#FFFFFF;}
	.st1{fill:#FAB819;}
	.st2{fill:#E2592A;}
	.st3{fill:#482B12;}
</style>
<g>
	<g>
		<path class="st1" d="M66.6,115c0-0.3,0-0.6,0-0.9c-0.1-2.2,0.5-4.3,2.8-3.9c1.1,0.2,1.4,1.5,1.6,2.5c0.7,4.1,0.9,8.4,0.6,12.5
			c-0.1,1.7,0.6,10.3,0.5,12c-0.1,1.4-1.4,3.9-3.3,3.6c-2.2-0.3-3-3.2-2.8-4.9c0.1-1.3,0.5-8.8,0.5-10.1
			C66.2,122.3,66.8,118.6,66.6,115z"/>
		<path class="st2" d="M48.9,133.5c-2.3-3.3-2.4-7.2-2.6-8.9c-1-8.1,2.8-14.3,4.3-22c0,0,3.5-16.3,3.2-24.4
			c-0.1-3.4-1.1-5.9-3.8-8.3c-2.4-2.1-3.9-4.4-5.5-7c-1.5-2.4-5.9-11.9-4.4-14.6c0.1-0.2,0.3-0.4,0.5-0.4c0.1,0,0.2,0,0.3,0.1
			c2.1,1.1,3.5,4.8,4.5,6.8c1.6,3.2,2.6,6.3,5.3,8.8c3,2.8,5.3,5.1,7.2,8.8c1.3,2.6,1.5,5.5,1.4,8.3c-0.2,5.5-0.2,10.9-1.3,16.3
			c-1.5,6.9-4.2,13.9-5.2,21c-0.5,3.7-0.4,7.2,0,10.8c0.2,1.7,2.5,6.4-1.7,6.4C50.4,135.2,49.5,134.4,48.9,133.5z"/>
		<path class="st3" d="M107.5,54c0,0,1.9,0,1.3,1.5c-0.6,1.5-13.6,6-17.4,7.5c-4,1.7-5.1,4.2-5.6,9.8c-0.5,5.6-0.2,14.8,1.4,25.4
			c1.7,11.4,8.1,21.9,4,33.3c-1.8,5.5-5.6,5-6.5,3.4c-1.1-2.2,3.1-8.2,1.1-15.5c-2.8-10.5-5.6-30.9-6.1-36.4
			c-0.5-5.5-0.1-18.9,9.1-22.5c1.5-2.2,6.2-11.7,8.3-10.8c0,0,0.6,1.5-1.8,5.7c-1.6,2.8-3.2,4-2.9,3.8C92.8,59,105.9,54,107.5,54z"
			/>
		<path class="st3" d="M57,61.3c0,0-2,0.2-0.5,1.5c1.5,1.3,7,8,7,17.1c0,5.2-4.5,28.6-6,35.2c-1.5,6.6-1.5,18,0.3,22
			c1.3,2.9,5.1,1.1,5.2-0.7c0.2-5.5-1.1-14.5,1.3-27.3c0.8-4.2,4.4-29.4,3.4-34.4C66.3,68,59.5,61.5,57,61.3z"/>
		<path class="st2" d="M82.9,44c-1.5-0.6-4.6,5.5-9.1,21c-2.9,9.8-2.2,20.7-1.5,30.7c0.3,4.9,0.5,9.9,1.3,14.7
			c1.1,6.7,2,13.4,2,20.2c0,2.4-1.9,9.2,2.3,8.4c2.1-0.4,2.6-1.9,3.2-3.7c1.6-4.9,0.9-10.2,0.1-15.3c-1.3-8.4-1.6-13-2.7-19.5
			c-1.2-7.2-1.3-14.5-1.3-21.7c0-5.3,1.2-10.2,2.1-15.4c0.4-2.2,3.2-9.4,3.4-11.6C82.9,50.8,84,44.4,82.9,44z"/>
		<path class="st1" d="M64.1,41.2c0,0,2-2.3,2.4,1.7c0.3,3.2,0.7,17.1,2.2,19.5c1.5,2.4-2,3.6-3.4-1.1c-1.5-4.8-1.8-5-2.4-7.3
			c-0.6-2.3-12.7-11.1-10.4-13.5c1.2-0.8,2.9,0.8,3.5,2s6.1,7.6,6.9,7.9C63.6,50.7,63.3,42.6,64.1,41.2z"/>
		<path class="st1" d="M24.2,55c0,0,5.9,14.1,19.2,14.2c1.7-0.1,1.5-2.4-0.8-3c-2.3-0.6-14.1-5.5-17.1-12.1C24,53.2,24.2,55,24.2,55
			z"/>
		<g>
			<path class="st3" d="M63.2,20.2c0.3-2.7,1.4-4.7,4-5.8c3-1.3,5.9,0.4,6.6,3.9c0.3,1.4,0.2,2.9,0,4.3c-0.1,0.5-0.9,0.9-1.4,1.4
				c-0.4-0.5-1-1-1.1-1.6c-0.2-1.1,0.2-2.3-0.1-3.4c-0.3-0.9-1.1-2.1-1.9-2.3c-0.8-0.1-2.1,0.6-2.6,1.4c-0.6,1-0.7,2.3-0.9,3.6
				c-0.1,0.5,0.2,1.1,0,1.5c-0.2,0.5-0.6,1.1-1,1.1c-0.4,0.1-1.1-0.5-1.2-0.8C63.3,22.4,63.3,21.3,63.2,20.2z"/>
			<path class="st3" d="M109.8,43.1c2-0.7,3.6-1.4,5.3-1.7c2.2-0.3,4.5,1.1,5.3,2.8c1.1,2.3,0.2,4.3-1.3,6.1
				c-0.7,0.8-1.4,1.6-2.2,2.1c-0.5,0.3-1.4,0-2.1,0c0.1-0.6,0-1.4,0.4-1.9c0.7-0.9,1.7-1.5,2.4-2.5c1.5-2,0.4-4.1-2.1-4
				c-1.4,0.1-2.7,0.8-4,1.4c-0.9,0.4-1.8,1.7-2.6,0.4C108.7,45.4,109.4,44.2,109.8,43.1z"/>
			<path class="st3" d="M46.7,22.8c0,0.9,0.1,1.8-0.1,2.6c-0.1,0.4-0.9,1-1.3,1c-0.4,0-1.1-0.8-1-1.2c0.1-1.8-0.4-3-2.2-3.2
				c-1.7-0.2-3.3,1.4-3.4,3.3c-0.1,1,0.4,2,0.4,3c0,0.6-0.5,1.1-0.7,1.7c-0.5-0.3-1.3-0.4-1.5-0.8c-1.9-3.9,0-9,4.4-9.7
				C43.5,19.2,45.7,20.5,46.7,22.8z"/>
			<path class="st3" d="M100.6,27.1c0,1.8-0.7,3.4-2.2,4.5c-0.5,0.4-1.6,0.4-2.1,0.1c-0.8-0.6-0.3-1.4,0.4-2
				c1.3-1.1,1.8-2.5,1.2-4.2c-0.4-1.2-1.3-1.9-2.6-1.9c-1.8,0-2.9,0.8-3.8,2.3c-0.3,0.5-1.1,0.6-1.7,0.9c-0.2-0.8-0.6-1.6-0.4-2.2
				c0.9-2.5,4.3-4.1,7-3.4C99.2,21.8,100.8,24.1,100.6,27.1z"/>
			<path class="st3" d="M13.4,46.2c0-2.9,1.9-5.1,4.8-5.7c2.4-0.5,5.7,1.1,6.6,3.3c0.2,0.6-0.3,1.4-0.4,2.2
				c-0.7-0.2-1.4-0.3-2.1-0.6c-0.3-0.1-0.4-0.6-0.6-0.8c-1.2-1.2-3.5-1.3-4.5-0.1c-1,1.2-0.7,3.4,0.7,4.4c0.3,0.3,0.9,0.3,1,0.6
				c0.3,0.6,0.7,1.5,0.5,1.9c-0.2,0.4-1.3,0.8-1.8,0.7C15.2,51.6,13.4,48.9,13.4,46.2z"/>
			<path class="st2" d="M27.7,32c1.6-0.7,3.6-0.1,4.6,1.3c0.2,0.3,0.2,0.7,0.2,1c0,0.6,0,1.1-0.1,1.7c-0.1,1.1-1,2-2.3,2.1
				c-1.2,0.1-2.3-0.2-3.4-0.7c-0.6-0.3-0.9-0.9-1.1-1.6C25.5,34.3,26.4,32.5,27.7,32z"/>
			<path class="st1" d="M78.4,32.5c0.2-1.5,1.1-2.4,2.5-2.6c1.1-0.1,2,0.3,2.5,1.3c0.3,0.6,0.6,1.1,0.7,1.8c0,0.9-0.2,1.5-0.9,2
				c-0.9,0.7-1.9,0.8-2.9,0.3c-0.6-0.3-1.2-0.6-1.5-1.2C78.4,33.5,78.3,33,78.4,32.5z"/>
			<path class="st2" d="M58.8,34.3c-0.8,0.4-1.6,0.4-2.4,0c-0.3-0.1-0.6-0.3-0.8-0.6c-0.4-0.6-0.7-1.3-0.9-2c-0.1-0.3-0.1-0.7,0.1-1
				c0.1-0.2,0.2-0.4,0.4-0.6c0.7-1.1,1.9-1.5,3.2-0.9c0.3,0.2,0.7,0.3,1,0.5c0.5,0.3,0.9,0.8,1,1.4C60.8,32.6,59.9,34,58.8,34.3z"/>
			<path class="st2" d="M100.6,39c0.6,0.1,1.1,0.2,1.5,0.4c0.5,0.3,0.8,0.7,0.9,1.3c0,0.2,0,0.4,0.1,0.6c0.2,1.2-0.4,2.2-1.6,2.5
				c-0.5,0.1-1,0.2-1.4,0.3c-0.4,0.1-0.7,0-1.1-0.2c-0.5-0.2-0.9-0.6-1.3-0.9c-0.7-0.6-0.9-1.3-0.5-2.2c0.6-1.2,1.6-1.6,2.8-1.7
				C100.2,38.9,100.4,39,100.6,39z"/>
			<path class="st2" d="M83.6,19.9c0.5,1,0.4,2,0,3c-0.2,0.7-0.8,1-1.5,1c-1.1,0.1-2.1-0.5-2.4-1.6c-0.1-0.4-0.3-0.9-0.3-1.3
				c-0.2-1.2,0.3-2.1,1.2-2.7c0.8-0.5,1.7-0.3,2.3,0.4C83.2,19.1,83.4,19.5,83.6,19.9z"/>
			<path class="st1" d="M34,40.5c0.2-2.2,2.5-2.6,3.6-2c1,0.6,1.6,2.5,1.1,3.6c-0.5,0.9-1.9,1.4-2.9,1c-0.3-0.1-0.6-0.3-0.8-0.5
				C34.2,42.1,33.9,41.3,34,40.5z"/>
			<path class="st1" d="M57.8,21c0.4,0.8,0.2,2-0.6,2.5c-0.4,0.2-0.7,0.6-1.2,0.8c-1.5,0.5-3-0.7-2.9-2.2c0-0.3,0.1-0.5,0.1-0.8
				c0.3-1.2,0.9-1.8,2-1.9C56.5,19.4,57.4,20,57.8,21z"/>
			<path class="st1" d="M107.9,37.2c-1.6,0.7-3.3-0.3-3.5-2c-0.1-0.8,0.2-1.4,0.9-1.9c0.5-0.3,0.9-0.7,1.5-0.8
				c1.3-0.2,2.7,1,2.5,2.4c-0.1,0.5-0.2,0.9-0.4,1.4C108.8,36.7,108.4,37,107.9,37.2z"/>
		</g>
		<g>
			<path class="st1" d="M64.6,146.4c-0.2,1.3-1,2.1-2.1,2.3c-0.9,0.1-1.7-0.3-2.1-1.1c-0.2-0.5-0.6-1-0.6-1.6c0-0.7,0.2-1.3,0.8-1.8
				c0.8-0.6,1.6-0.7,2.5-0.2c0.5,0.3,1.1,0.5,1.3,1.1C64.6,145.5,64.7,146,64.6,146.4z"/>
			<path class="st2" d="M74.6,143.8c0.7-0.3,1.4-0.3,2.1,0c0.3,0.1,0.5,0.3,0.7,0.6c0.3,0.5,0.6,1.1,0.7,1.7
				c0.1,0.3,0.1,0.6-0.1,0.9c-0.1,0.2-0.2,0.4-0.3,0.5c-0.6,1-1.7,1.3-2.7,0.8c-0.3-0.1-0.6-0.3-0.9-0.5c-0.5-0.3-0.8-0.7-0.9-1.2
				C72.9,145.3,73.7,144.1,74.6,143.8z"/>
			<path class="st2" d="M50.3,144c-0.5-0.1-0.9-0.2-1.3-0.4c-0.4-0.3-0.7-0.6-0.7-1.1c0-0.2,0-0.3-0.1-0.5c-0.2-1,0.4-1.9,1.3-2.1
				c0.4-0.1,0.8-0.2,1.2-0.2c0.3,0,0.6,0,0.9,0.2c0.4,0.2,0.8,0.5,1.1,0.8c0.6,0.5,0.8,1.1,0.4,1.9c-0.5,1-1.4,1.4-2.4,1.5
				C50.6,144,50.4,144,50.3,144z"/>
			<path class="st1" d="M89.3,142.4c-0.2,1.9-2.1,2.3-3.1,1.7c-0.9-0.5-1.4-2.2-0.9-3.1c0.4-0.8,1.6-1.2,2.5-0.8
				c0.2,0.1,0.5,0.3,0.7,0.4C89.2,141,89.4,141.6,89.3,142.4z"/>
		</g>
	</g>
	<g>
		<path class="st3" d="M127,68.7c3,0,5.3,0.8,6.9,2.3c1.6,1.5,2.4,3.7,2.4,6.5c0,1.5-0.3,2.9-1,4.1c-0.7,1.2-1.7,2.2-3,3
			c-1.3,0.7-2.9,1.1-4.8,1.2l-0.1-1.4c1.2,0,2.4,0.2,3.6,0.5c1.2,0.3,2.4,0.9,3.5,1.6c1.1,0.7,1.9,1.7,2.6,2.9c0.7,1.2,1,2.7,1,4.5
			c0,1.9-0.3,3.5-1,4.8c-0.6,1.3-1.5,2.3-2.6,3.1c-1.1,0.8-2.2,1.4-3.5,1.7c-1.3,0.3-2.6,0.5-3.9,0.5h-13.3c-0.6,0-1.1-0.2-1.4-0.6
			c-0.4-0.4-0.6-0.9-0.6-1.5V70.7c0-0.6,0.2-1.1,0.6-1.4c0.4-0.4,0.9-0.6,1.4-0.6H127z M126.4,72.7h-10.9l0.6-0.9v12.6l-0.6-0.7
			h10.9c1.5,0,2.8-0.5,3.8-1.4s1.6-2.4,1.6-4.3c0-1.7-0.5-3-1.5-3.9C129.5,73.1,128.1,72.7,126.4,72.7z M126.8,87.7h-11l0.4-0.4
			v13.2l-0.4-0.5H127c2,0,3.6-0.5,4.9-1.5c1.3-1,1.9-2.6,1.9-4.7c0-1.7-0.3-2.9-1-3.8c-0.7-0.9-1.5-1.5-2.6-1.8
			C129.1,87.9,128,87.7,126.8,87.7z"/>
		<path class="st3" d="M168.2,90.9c0,2.6-0.6,5-1.7,7c-1.2,2.1-2.7,3.7-4.7,4.9c-2,1.2-4.2,1.8-6.7,1.8c-2.5,0-4.7-0.6-6.7-1.8
			c-2-1.2-3.6-2.8-4.7-4.9c-1.2-2.1-1.7-4.4-1.7-7c0-2.6,0.6-5,1.7-7c1.2-2.1,2.7-3.7,4.7-4.9c2-1.2,4.2-1.8,6.7-1.8
			c2.5,0,4.7,0.6,6.7,1.8c2,1.2,3.5,2.8,4.7,4.9C167.6,86,168.2,88.3,168.2,90.9z M164.1,90.9c0-2-0.4-3.7-1.2-5.2
			c-0.8-1.5-1.9-2.6-3.2-3.5c-1.4-0.8-2.9-1.3-4.6-1.3c-1.7,0-3.3,0.4-4.6,1.3c-1.4,0.8-2.5,2-3.3,3.5c-0.8,1.5-1.2,3.2-1.2,5.2
			c0,1.9,0.4,3.6,1.2,5.1c0.8,1.5,1.9,2.7,3.3,3.5c1.4,0.9,2.9,1.3,4.6,1.3c1.7,0,3.3-0.4,4.6-1.3c1.4-0.9,2.4-2,3.2-3.5
			C163.7,94.6,164.1,92.9,164.1,90.9z"/>
		<path class="st3" d="M186.2,73.9l-11.9,28.9c-0.1,0.4-0.4,0.7-0.7,1c-0.3,0.2-0.7,0.4-1.1,0.4c-0.6,0-1.1-0.2-1.4-0.5
			c-0.3-0.3-0.5-0.7-0.5-1.2c0-0.2,0-0.5,0.1-0.8l13.1-31.9c0.2-0.5,0.4-0.8,0.8-1c0.4-0.2,0.8-0.3,1.2-0.3c0.4,0,0.8,0.1,1.2,0.4
			c0.4,0.2,0.6,0.6,0.7,1l13.1,31.6c0.1,0.3,0.2,0.5,0.2,0.8c0,0.6-0.2,1.1-0.6,1.4c-0.4,0.4-0.9,0.5-1.4,0.5
			c-0.4,0-0.8-0.1-1.1-0.4c-0.3-0.2-0.6-0.6-0.8-1l-12-28.9L186.2,73.9z M176.8,94.6l1.7-3.9h15l0.8,3.9H176.8z"/>
		<path class="st3" d="M220.3,77.3c2.3,0,4.4,0.6,6.2,1.7c1.8,1.2,3.3,2.8,4.3,4.8c1.1,2,1.6,4.4,1.6,7c0,2.7-0.5,5-1.6,7.1
			c-1.1,2.1-2.5,3.7-4.3,4.9c-1.8,1.2-3.8,1.8-6.1,1.8c-1.2,0-2.4-0.2-3.5-0.6c-1.1-0.4-2.1-0.9-3-1.6s-1.6-1.4-2.3-2.2
			c-0.6-0.8-1-1.6-1.3-2.4l1.1-0.7v5.1c0,0.6-0.2,1.1-0.6,1.5s-0.9,0.6-1.5,0.6c-0.6,0-1.1-0.2-1.4-0.6c-0.4-0.4-0.6-0.9-0.6-1.5
			V68.7c0-0.6,0.2-1.1,0.6-1.5s0.9-0.6,1.4-0.6c0.6,0,1.1,0.2,1.5,0.6s0.6,0.9,0.6,1.5v15.6l-0.8-0.4c0.2-0.8,0.6-1.7,1.2-2.5
			c0.6-0.8,1.3-1.5,2.2-2.1c0.9-0.6,1.8-1.1,2.9-1.5C218.1,77.5,219.2,77.3,220.3,77.3z M219.9,81c-1.7,0-3.2,0.4-4.5,1.3
			c-1.3,0.8-2.3,2-3,3.5c-0.7,1.5-1.1,3.2-1.1,5.1c0,1.9,0.4,3.6,1.1,5.1s1.7,2.7,3,3.6c1.3,0.9,2.8,1.3,4.5,1.3
			c1.7,0,3.2-0.4,4.5-1.3c1.3-0.9,2.3-2.1,3-3.6s1.1-3.2,1.1-5.1c0-1.9-0.4-3.6-1.1-5.1c-0.7-1.5-1.8-2.6-3-3.5
			C223,81.4,221.6,81,219.9,81z"/>
		<path class="st3" d="M268.6,71.6c0.3,0.2,0.4,0.4,0.5,0.7c0,0.3,0,0.5-0.2,0.8c-0.2,0.2-0.4,0.4-0.6,0.4c-0.3,0-0.5,0-0.7-0.2
			c-1.4-1-3-1.8-4.6-2.3c-1.7-0.6-3.4-0.9-5.3-0.9c-2.2,0-4.2,0.4-6,1.2c-1.9,0.8-3.5,1.9-4.9,3.4c-1.4,1.5-2.5,3.2-3.3,5.2
			c-0.8,2-1.2,4.2-1.2,6.6c0,2.4,0.4,4.6,1.2,6.6c0.8,2,1.9,3.7,3.3,5.2c1.4,1.5,3.1,2.6,4.9,3.4c1.9,0.8,3.9,1.2,6,1.2
			c1.9,0,3.7-0.3,5.3-0.9c1.7-0.6,3.2-1.3,4.6-2.3c0.2-0.2,0.5-0.2,0.8-0.2c0.3,0,0.5,0.2,0.7,0.4c0.2,0.2,0.2,0.5,0.2,0.8
			c0,0.3-0.2,0.5-0.4,0.7c-0.8,0.6-1.8,1.1-3.1,1.7c-1.2,0.5-2.5,1-3.9,1.3c-1.4,0.3-2.8,0.5-4.1,0.5c-2.4,0-4.7-0.5-6.8-1.4
			c-2.1-0.9-4-2.2-5.6-3.8c-1.6-1.6-2.9-3.6-3.8-5.8c-0.9-2.2-1.4-4.6-1.4-7.3s0.5-5.1,1.4-7.3c0.9-2.2,2.2-4.1,3.8-5.8
			s3.5-2.9,5.6-3.8c2.1-0.9,4.4-1.4,6.8-1.4c2.1,0,4,0.3,5.9,0.9C265.3,69.7,267,70.5,268.6,71.6z"/>
		<path class="st3" d="M297.5,91.3c0,2.5-0.5,4.7-1.6,6.8c-1.1,2-2.6,3.6-4.4,4.8c-1.9,1.2-4,1.7-6.4,1.7c-2.4,0-4.5-0.6-6.4-1.7
			c-1.9-1.2-3.4-2.7-4.5-4.8c-1.1-2-1.6-4.3-1.6-6.8c0-2.5,0.5-4.8,1.6-6.8c1.1-2,2.6-3.6,4.5-4.8c1.9-1.2,4-1.7,6.4-1.7
			c2.4,0,4.5,0.6,6.4,1.7c1.9,1.2,3.3,2.8,4.4,4.8C297,86.5,297.5,88.8,297.5,91.3z M295.5,91.3c0-2.2-0.4-4.1-1.3-5.8
			c-0.9-1.7-2.1-3.1-3.7-4c-1.6-1-3.4-1.5-5.4-1.5c-2,0-3.8,0.5-5.4,1.5c-1.6,1-2.8,2.3-3.7,4c-0.9,1.7-1.4,3.7-1.4,5.8
			c0,2.2,0.5,4.1,1.4,5.8c0.9,1.7,2.2,3.1,3.7,4c1.6,1,3.4,1.5,5.4,1.5c2,0,3.8-0.5,5.4-1.5c1.6-1,2.8-2.3,3.7-4
			C295.1,95.4,295.5,93.5,295.5,91.3z"/>
	</g>
</g>
</svg>
